# xmcd CD database file
#
# Track frame offsets:
#	150
#	18332
#	36527
#	54220
#	75650
#	92880
#	115075
#	133527
#	151357
#	170787
#	184250
#	204865
#	222647
#	239872
#	258940
#	279972
#
# Disc length: 4012 seconds
#
# Revision: 1
# Processed by: cddbd v1.5.1PL0 Copyright (c) Steve Scherf et al.
# Submitted via: CDex 1.51
#
DISCID=e40faa10
DTITLE=ちあきなおみ - ちあきなおみ全曲集 〜黄昏のビギン〜
DYEAR=2001
DGENRE=JPop
TTITLE0=歳月河
TTITLE1=紅とんぼ
TTITLE2=矢切の渡し
TTITLE3=かもめの街
TTITLE4=喝采
TTITLE5=片情
TTITLE6=君知らず
TTITLE7=さだめ川
TTITLE8=黄昏のビギン
TTITLE9=星影の小径
TTITLE10=こぼれ花
TTITLE11=イマージュ
TTITLE12=港が見える丘
TTITLE13=秘恋
TTITLE14=伝わりますか
TTITLE15=東京砂漠
EXTD=YEAR: 2001
EXTT0=
EXTT1=
EXTT2=
EXTT3=
EXTT4=
EXTT5=
EXTT6=
EXTT7=
EXTT8=
EXTT9=
EXTT10=
EXTT11=
EXTT12=
EXTT13=
EXTT14=
EXTT15=
PLAYORDER=
